# xmcd
#
# Track frame offsets:
#	150
#	21672
#	42865
#	58486
#	76096
#	91494
#	105781
#	130606
#	141531
#	158206
#	173118
#
# Disc length: 2644 seconds
#
# Revision: 1
# Processed by: cddbd v1.5.2PL0 Copyright (c) Steve Scherf et al.
# Submitted via: audiograbber 1.83.01
#
DISCID=8f0a520b
DTITLE=Deana Carter - Father Christmas
DYEAR=1900
DGENRE=Country
TTITLE0=I'll Be Home For Christmas
TTITLE1=The Christmas Song
TTITLE2=Merry Christmas Darling
TTITLE3=Blue Christmas
TTITLE4=Johnny's Snowman
TTITLE5=Let It Snow, Let It Snow, Let It Snow
TTITLE6=Silent Night
TTITLE7=Winter Wonderland
TTITLE8=White Christmas
TTITLE9=Have Yourself A Merry Little Christmas
TTITLE10=Interview
EXTD=
EXTT0=
EXTT1=
EXTT2=
EXTT3=
EXTT4=
EXTT5=
EXTT6=
EXTT7=
EXTT8=
EXTT9=
EXTT10=
PLAYORDER=
